<svg width="12" height="12" viewBox="0 0 12 12" fill="none" xmlns="http://www.w3.org/2000/svg">
<g id="Group">
<path id="Path" d="M8.38649 5.30102C9.70451 6.61904 9.70451 8.75597 8.38649 10.074C7.06846 11.392 4.93153 11.392 3.61352 10.074C2.29549 8.75596 2.29549 6.61903 3.61352 5.30102C4.93154 3.98299 7.06847 3.98299 8.38649 5.30102" stroke="#008059" stroke-width="1.5" stroke-linecap="round" stroke-linejoin="round"/>
<path id="Path_2" d="M8.54813 5.47856L10.662 1.779C10.8763 1.40381 10.6052 0.9375 10.1738 0.9375H8.25506C8.05312 0.9375 7.86694 1.0455 7.76681 1.221L6 4.3125" stroke="#008059" stroke-width="1.5" stroke-linecap="round" stroke-linejoin="round"/>
<path id="Path_3" d="M3.4518 5.47856L1.33793 1.779C1.12362 1.40381 1.39418 0.9375 1.82618 0.9375H3.74487C3.9468 0.9375 4.13299 1.0455 4.23312 1.221L5.99993 4.3125" stroke="#008059" stroke-width="1.5" stroke-linecap="round" stroke-linejoin="round"/>
</g>
</svg>
