<svg width="14" height="14" viewBox="0 0 14 14" fill="none" xmlns="http://www.w3.org/2000/svg">
<g id="Group">
<g id="Group_2">
<path id="Path" fill-rule="evenodd" clip-rule="evenodd" d="M4.32193 8.31015L3.42651 4.08331H10.7917C11.1714 4.08331 11.4497 4.43973 11.3575 4.8084L10.5712 7.95373C10.4516 8.43148 10.0456 8.78265 9.5556 8.83165L5.5796 9.22948C4.98693 9.2884 4.44501 8.89231 4.32193 8.31015Z" stroke="#0069E0" stroke-width="1.5" stroke-linecap="round" stroke-linejoin="round"/>
<path id="Path_2" d="M3.42646 4.08331L3.04729 2.33331H2.04163" stroke="#0069E0" stroke-width="1.5" stroke-linecap="round" stroke-linejoin="round"/>
<path id="Path_3" d="M9.9802 11.2391C9.86237 11.2391 9.7667 11.3347 9.76787 11.4526C9.76787 11.5704 9.86354 11.6661 9.98137 11.6661C10.0992 11.6661 10.1949 11.5704 10.1949 11.4526C10.1943 11.3347 10.0986 11.2391 9.9802 11.2391" stroke="#0069E0" stroke-width="1.5" stroke-linecap="round" stroke-linejoin="round"/>
<path id="Path_4" d="M5.07327 11.2391C4.95543 11.2391 4.85977 11.3347 4.86093 11.4526C4.85977 11.571 4.95602 11.6667 5.07385 11.6667C5.19168 11.6667 5.28735 11.571 5.28735 11.4532C5.28735 11.3347 5.19168 11.2391 5.07327 11.2391" stroke="#0069E0" stroke-width="1.5" stroke-linecap="round" stroke-linejoin="round"/>
</g>
</g>
</svg>
