<svg width="14" height="14" viewBox="0 0 14 14" fill="none" xmlns="http://www.w3.org/2000/svg">
<g id="Star">
<path id="Path" fill-rule="evenodd" clip-rule="evenodd" d="M4.25204 13.0114C3.92524 13.1914 3.52989 13.1597 3.23261 12.9297C2.93533 12.6996 2.78784 12.3112 2.85229 11.9282L3.37389 8.77321L1.17788 6.55239C0.909456 6.28225 0.811082 5.87391 0.924661 5.50129C1.03824 5.12866 1.34376 4.85742 1.71109 4.80309L4.7601 4.34314L6.13663 1.44533C6.29984 1.09779 6.63563 0.87793 7.00317 0.87793C7.37072 0.87793 7.7065 1.09779 7.86971 1.44533L9.24625 4.34314L12.2953 4.80309C12.6626 4.85742 12.9681 5.12866 13.0817 5.50129C13.1953 5.87391 13.0969 6.28225 12.8285 6.55239L10.6325 8.77321L11.1541 11.9289C11.2185 12.3119 11.071 12.7003 10.7737 12.9304C10.4765 13.1604 10.0811 13.1921 9.75431 13.0121L7.00317 11.5118L4.25204 13.0114Z" fill="#ECA521"/>
</g>
</svg>
