<svg width="24" height="24" viewBox="0 0 24 24" fill="none" xmlns="http://www.w3.org/2000/svg">
<path d="M17.2521 6.7479C19.3764 8.87217 20.0119 12.0669 18.8622 14.8424C17.7126 17.6179 15.0042 19.4276 12 19.4276C8.99588 19.4276 6.28752 17.6179 5.13787 14.8424C3.98823 12.0669 4.6237 8.87217 6.74797 6.7479C8.14086 5.35487 10.0301 4.57227 12 4.57227C13.97 4.57227 15.8592 5.35487 17.2521 6.7479" stroke="#707589" stroke-width="1.5" stroke-linecap="round" stroke-linejoin="round"/>
<path d="M21.0038 12H19.4277" stroke="#707589" stroke-width="1.5" stroke-linecap="round" stroke-linejoin="round"/>
<path d="M4.57238 12H2.99634" stroke="#707589" stroke-width="1.5" stroke-linecap="round" stroke-linejoin="round"/>
<path d="M12.0002 21.0037V19.4276" stroke="#707589" stroke-width="1.5" stroke-linecap="round" stroke-linejoin="round"/>
<path d="M12.0002 2.99625V4.57229" stroke="#707589" stroke-width="1.5" stroke-linecap="round" stroke-linejoin="round"/>
<path d="M20.3184 8.5544L18.8618 9.15768" stroke="#707589" stroke-width="1.5" stroke-linecap="round" stroke-linejoin="round"/>
<path d="M5.13837 14.8422L3.68188 15.4455" stroke="#707589" stroke-width="1.5" stroke-linecap="round" stroke-linejoin="round"/>
<path d="M8.55449 3.68158L9.15784 5.13814" stroke="#707589" stroke-width="1.5" stroke-linecap="round" stroke-linejoin="round"/>
<path d="M15.4457 20.3183L14.8423 18.8618" stroke="#707589" stroke-width="1.5" stroke-linecap="round" stroke-linejoin="round"/>
<path d="M3.68188 8.5544L5.13843 9.15768" stroke="#707589" stroke-width="1.5" stroke-linecap="round" stroke-linejoin="round"/>
<path d="M18.8621 14.8422L20.3185 15.4455" stroke="#707589" stroke-width="1.5" stroke-linecap="round" stroke-linejoin="round"/>
<path d="M8.55449 20.3183L9.15784 18.8618" stroke="#707589" stroke-width="1.5" stroke-linecap="round" stroke-linejoin="round"/>
<path d="M15.4457 3.68158L14.8423 5.13814" stroke="#707589" stroke-width="1.5" stroke-linecap="round" stroke-linejoin="round"/>
<path d="M18.3667 18.3666L13.8191 13.819" stroke="#707589" stroke-width="1.5" stroke-linecap="round" stroke-linejoin="round"/>
<path d="M10.1811 10.181L5.63354 5.63339" stroke="#707589" stroke-width="1.5" stroke-linecap="round" stroke-linejoin="round"/>
<path d="M18.3667 5.63339L13.8191 10.181" stroke="#707589" stroke-width="1.5" stroke-linecap="round" stroke-linejoin="round"/>
<path d="M10.1811 13.819L5.63354 18.3666" stroke="#707589" stroke-width="1.5" stroke-linecap="round" stroke-linejoin="round"/>
<path d="M13.819 10.181C14.5547 10.9167 14.7748 12.0232 14.3767 12.9844C13.9785 13.9457 13.0405 14.5724 12 14.5724C10.9596 14.5724 10.0215 13.9457 9.62338 12.9844C9.22522 12.0232 9.4453 10.9167 10.181 10.181C10.6634 9.69854 11.3178 9.42749 12 9.42749C12.6823 9.42749 13.3366 9.69854 13.819 10.181" stroke="#707589" stroke-width="1.5" stroke-linecap="round" stroke-linejoin="round"/>
</svg>
