<svg width="18" height="18" viewBox="0 0 18 18" fill="none" xmlns="http://www.w3.org/2000/svg">
<g id="Group">
<path id="Path" fill-rule="evenodd" clip-rule="evenodd" d="M9.00002 8.99996C10.4217 7.54028 10.773 5.34485 9.87789 3.51442C9.82188 3.38116 9.84742 3.22758 9.94353 3.11962C10.0396 3.01165 10.1892 2.96851 10.3281 3.00871C11.3972 3.2843 12.3732 3.84104 13.1545 4.62113C15.5729 6.97709 15.6239 10.8473 13.2686 13.2662C10.8498 15.6218 6.97962 15.5711 4.62345 13.1529C3.8429 12.3721 3.28586 11.3964 3.01028 10.3273C2.96987 10.1882 3.01308 10.0384 3.12129 9.94217C3.2295 9.84598 3.38341 9.82064 3.51674 9.87707C5.34636 10.7718 7.54079 10.4207 9.00002 8.99996Z" fill="#E3E7EB"/>
</g>
</svg>
