<svg width="24" height="24" viewBox="0 0 24 24" fill="none" xmlns="http://www.w3.org/2000/svg">
<path fill-rule="evenodd" clip-rule="evenodd" d="M6.60157 3.89603C6.60157 5.88471 4.98942 7.49686 3.00073 7.49686C4.98942 7.49686 6.60157 9.10901 6.60157 11.0977C6.60157 9.10901 8.21372 7.49686 10.2024 7.49686C8.21372 7.49686 6.60157 5.88471 6.60157 3.89603Z" stroke="#707589" stroke-width="1.5" stroke-linecap="round" stroke-linejoin="round"/>
<path fill-rule="evenodd" clip-rule="evenodd" d="M16.504 14.6985C16.504 12.2127 14.4888 10.1975 12.0029 10.1975C14.4888 10.1975 16.504 8.1823 16.504 5.69644C16.504 8.1823 18.5192 10.1975 21.005 10.1975C18.5192 10.1975 16.504 12.2127 16.504 14.6985Z" stroke="#707589" stroke-width="1.5" stroke-linecap="round" stroke-linejoin="round"/>
<path d="M16.5038 14.6985V15.5988" stroke="#707589" stroke-width="1.5" stroke-linecap="round" stroke-linejoin="round"/>
<path d="M16.5038 5.69644V4.79623" stroke="#707589" stroke-width="1.5" stroke-linecap="round" stroke-linejoin="round"/>
<path d="M10.2025 20.0998V21" stroke="#707589" stroke-width="1.5" stroke-linecap="round" stroke-linejoin="round"/>
<path d="M10.2025 13.7984V12.8982" stroke="#707589" stroke-width="1.5" stroke-linecap="round" stroke-linejoin="round"/>
<path d="M6.60147 11.0977V11.9979" stroke="#707589" stroke-width="1.5" stroke-linecap="round" stroke-linejoin="round"/>
<path d="M6.60147 2.99585V3.89606" stroke="#707589" stroke-width="1.5" stroke-linecap="round" stroke-linejoin="round"/>
<path fill-rule="evenodd" clip-rule="evenodd" d="M10.2024 13.3482C10.2024 15.3369 8.59025 16.9491 6.60156 16.9491C8.59025 16.9491 10.2024 18.5612 10.2024 20.5499C10.2024 18.5612 11.8146 16.9491 13.8032 16.9491C11.8146 16.9491 10.2024 15.3369 10.2024 13.3482Z" stroke="#707589" stroke-width="1.5" stroke-linecap="round" stroke-linejoin="round"/>
</svg>
