<svg width="18" height="18" viewBox="0 0 18 18" fill="none" xmlns="http://www.w3.org/2000/svg">
<g id="Group">
<g id="Group_2">
<g id="Path">
<path fill-rule="evenodd" clip-rule="evenodd" d="M11.6517 6.34835C13.1161 7.81281 13.1161 10.1872 11.6517 11.6517C10.1872 13.1161 7.81281 13.1161 6.34835 11.6517C4.88388 10.1872 4.88388 7.81281 6.34835 6.34835C7.81281 4.88388 10.1872 4.88388 11.6517 6.34835Z" fill="#02AFBC"/>
<path d="M11.6517 6.34835C13.1161 7.81281 13.1161 10.1872 11.6517 11.6517C10.1872 13.1161 7.81281 13.1161 6.34835 11.6517C4.88388 10.1872 4.88388 7.81281 6.34835 6.34835C7.81281 4.88388 10.1872 4.88388 11.6517 6.34835" stroke="#03AFBC" stroke-width="1.5" stroke-linecap="round" stroke-linejoin="round"/>
</g>
<path id="Path_2" d="M9 3V1.5" stroke="#02AFBC" stroke-width="1.5" stroke-linecap="round" stroke-linejoin="round"/>
<path id="Path_3" d="M9 16.5V15" stroke="#02AFBC" stroke-width="1.5" stroke-linecap="round" stroke-linejoin="round"/>
<path id="Path_4" d="M13.77 4.22999L14.3025 3.6975" stroke="#02AFBC" stroke-width="1.5" stroke-linecap="round" stroke-linejoin="round"/>
<path id="Path_5" d="M3.6975 14.3025L4.22999 13.77" stroke="#02AFBC" stroke-width="1.5" stroke-linecap="round" stroke-linejoin="round"/>
<path id="Path_6" d="M15 9H16.5" stroke="#02AFBC" stroke-width="1.5" stroke-linecap="round" stroke-linejoin="round"/>
<path id="Path_7" d="M1.5 9H3" stroke="#02AFBC" stroke-width="1.5" stroke-linecap="round" stroke-linejoin="round"/>
<path id="Path_8" d="M13.77 13.77L14.3025 14.3025" stroke="#02AFBC" stroke-width="1.5" stroke-linecap="round" stroke-linejoin="round"/>
<path id="Path_9" d="M3.6975 3.6975L4.22999 4.22999" stroke="#02AFBC" stroke-width="1.5" stroke-linecap="round" stroke-linejoin="round"/>
</g>
</g>
</svg>
