<svg width="12" height="12" viewBox="0 0 12 12" fill="none" xmlns="http://www.w3.org/2000/svg">
<g id="Group 6102">
<path id="Union" fill-rule="evenodd" clip-rule="evenodd" d="M2.05928 2.66121C2.4114 2.31317 2.98589 2.31317 3.33801 2.66121C3.68528 3.00446 3.68528 3.55733 3.33801 3.90058C2.98589 4.24863 2.4114 4.24863 2.05928 3.90058C1.71201 3.55733 1.71201 3.00446 2.05928 2.66121ZM1.00481 1.59439C1.94128 0.668771 3.45601 0.668771 4.39248 1.59439C4.66771 1.86644 4.86247 2.18823 4.97675 2.53067H10.398C10.8122 2.53067 11.148 2.86645 11.148 3.28067C11.148 3.69488 10.8122 4.03067 10.398 4.03067H4.9769C4.86264 4.37328 4.66783 4.69523 4.39248 4.9674C3.45601 5.89302 1.94128 5.89302 1.00481 4.9674C0.0634997 4.03698 0.0634997 2.52481 1.00481 1.59439ZM9.93837 8.09668C9.58625 7.74864 9.01176 7.74864 8.65964 8.09668C8.31237 8.43993 8.31237 8.9928 8.65964 9.33605C9.01176 9.6841 9.58625 9.6841 9.93837 9.33605C10.2856 8.9928 10.2856 8.43993 9.93837 8.09668ZM10.9928 7.02987C10.0564 6.10424 8.54164 6.10424 7.60517 7.02987C7.32995 7.30191 7.13519 7.62368 7.02091 7.96611H1.5969C1.18269 7.96611 0.846905 8.30189 0.846905 8.71611C0.846905 9.13032 1.18269 9.46611 1.5969 9.46611H7.02074C7.13499 9.80873 7.32981 10.1307 7.60517 10.4029C8.54164 11.3285 10.0564 11.3285 10.9928 10.4029C11.9341 9.47245 11.9341 7.96028 10.9928 7.02987Z" fill="#181D11"/>
</g>
</svg>
