<svg width="32" height="32" viewBox="0 0 32 32" fill="none" xmlns="http://www.w3.org/2000/svg">
  <g id="Close">
    <path id="Union" fill-rule="evenodd" clip-rule="evenodd"
      d="M20.7821 12.2803C21.075 11.9874 21.075 11.5126 20.7821 11.2197C20.4892 10.9268 20.0143 10.9268 19.7214 11.2197L16.0009 14.9402L12.2803 11.2197C11.9874 10.9268 11.5126 10.9268 11.2197 11.2197C10.9268 11.5126 10.9268 11.9874 11.2197 12.2803L14.9402 16.0009L11.2197 19.7214C10.9268 20.0143 10.9268 20.4892 11.2197 20.7821C11.5126 21.075 11.9874 21.075 12.2803 20.7821L16.0009 17.0615L19.7214 20.7821C20.0143 21.075 20.4892 21.075 20.7821 20.7821C21.075 20.4892 21.075 20.0143 20.7821 19.7214L17.0615 16.0009L20.7821 12.2803Z"
      fill="#252B42" />
  </g>
</svg>
