<svg width="86" height="32" viewBox="0 0 86 32" fill="none" xmlns="http://www.w3.org/2000/svg">
<path fill-rule="evenodd" clip-rule="evenodd" d="M0 16.8846V0H3.42521V16.8846H0ZM35.7739 4.46008C38.5843 4.46008 40.6043 6.14399 40.6043 9.8759V16.8846H37.1791V10.422C37.1791 8.4423 36.3228 7.53208 34.9395 7.53208C33.4026 7.53208 32.3267 8.55608 32.3267 10.7406V16.8846H28.9015V10.422C28.9015 8.4423 28.0891 7.53208 26.6619 7.53208C25.1469 7.53208 24.071 8.55608 24.071 10.7406V16.8846H20.6458V4.64213H23.9173V6.05297C24.7956 5.00622 26.113 4.46008 27.628 4.46008C29.2747 4.46008 30.6799 5.11999 31.5143 6.46257C32.4584 5.21102 33.9954 4.46008 35.7739 4.46008ZM61.6664 9.8759C61.6664 6.14399 59.5585 4.46008 56.7701 4.46008C55.1672 4.46008 53.784 5.02897 52.8618 6.07573V4.64213H49.5903V16.8846H53.0155V10.8316C53.0155 8.57884 54.2012 7.53208 55.8479 7.53208C57.3629 7.53208 58.2412 8.4423 58.2412 10.422V16.8846H61.6664V9.8759ZM63.7394 4.64221V16.8847H67.1647V4.64221H63.7394ZM17.8165 4.64221H14.3913V10.6952C14.3913 12.948 13.2496 13.9947 11.6687 13.9947C10.1537 13.9947 9.27547 13.0845 9.27547 11.0365V4.64221H5.85025V11.5599C5.85025 15.3373 7.93612 17.0667 10.9002 17.0667C12.3494 17.0667 13.6668 16.4979 14.567 15.4283V16.8847H17.8165V4.64221ZM85.9998 25.6967C85.9998 21.851 83.4309 19.3934 80.1154 19.3934C78.6443 19.3934 77.4367 19.8713 76.5585 20.8725V14.9333H73.1333V31.8179H76.4048V30.4071C77.2611 31.4766 78.5346 32 80.1154 32C83.4309 32 85.9998 29.5424 85.9998 25.6967ZM82.5306 25.6967C82.5306 27.813 81.2352 29.0873 79.5226 29.0873C77.81 29.0873 76.5146 27.813 76.5146 25.6967C76.5146 23.5804 77.81 22.3061 79.5226 22.3061C81.2352 22.3061 82.5306 23.5804 82.5306 25.6967ZM66.879 19.5754H70.3042V31.8179H67.0547V30.3615C66.1544 31.431 64.8371 31.9999 63.3879 31.9999C60.4238 31.9999 58.3379 30.2705 58.3379 26.4931V19.5754H61.7631V25.9697C61.7631 28.0177 62.6414 28.9279 64.1564 28.9279C65.7373 28.9279 66.879 27.8812 66.879 25.6284V19.5754ZM55.2991 24.8093C55.2991 21.0774 53.1913 19.3935 50.4028 19.3935C48.8878 19.3935 47.5704 19.8941 46.6483 20.8498V4.59433H43.2231V31.818H46.6483V25.765C46.6483 23.5122 47.8339 22.4655 49.4807 22.4655C50.9957 22.4655 51.8739 23.3757 51.8739 25.3554V31.818H55.2991V24.8093Z" fill="#E5E9ED"/>
</svg>
