<svg width="31" height="30" viewBox="0 0 31 30" fill="none" xmlns="http://www.w3.org/2000/svg">
    <path d="M24.575 15.006c0 5.213-4.254 9.446-9.494 9.446s-9.494-4.233-9.494-9.446c0-5.156 4.15-9.343 9.309-9.447V0C6.654.104 0 6.77 0 14.994 0 23.276 6.747 30 15.081 30c8.324 0 15.082-6.713 15.082-15.006v-.011l-5.588.023z" fill="#40F5DE"/>
    <path d="M30.128 2.803A2.802 2.802 0 0 0 29.294.83 2.792 2.792 0 0 0 27.31.011H27.3L16.658.035v5.582l7.871-.023.012 7.635h5.61l-.023-10.426z" fill="#fff"/>
</svg>
