<svg viewBox="0 0 142 49" fill="none" xmlns="http://www.w3.org/2000/svg">
<path d="M58.1653 30.6451C55.4017 28.271 54.0106 24.951 54.0106 20.6851C54.0106 16.4934 55.2348 13.1734 57.683 10.7251C60.1313 8.27681 63.6368 7.05267 68.1809 7.05267C71.1671 7.05267 73.7081 7.62765 75.8225 8.75905C77.9369 9.89045 79.532 11.4484 80.5892 13.4145C81.6465 15.3805 82.1843 17.6248 82.1843 20.1472V22.4842C82.1843 22.9108 81.8505 23.2447 81.4239 23.2447H60.391C60.8547 27.0469 64.1561 28.9388 70.2954 28.9388C71.9275 28.9388 73.5968 28.7904 75.3032 28.5122C76.6386 28.2896 77.8628 27.9928 78.9385 27.6404C79.3466 27.5106 79.7731 27.8074 79.7731 28.2525V32.5184C78.5676 33.0192 77.0096 33.4273 75.1177 33.7426C73.2259 34.0579 71.334 34.2248 69.4422 34.2248C64.694 34.2248 60.9289 33.0192 58.1653 30.6451ZM75.8411 18.6634C75.7669 16.6417 75.0435 15.0838 73.6896 13.9709C72.317 12.8766 70.4437 12.3202 68.0697 12.3202C65.7327 12.3202 63.8779 12.8951 62.5239 14.0265C61.17 15.1579 60.4652 16.7159 60.391 18.6634H75.8411Z" fill="white"/>
<path d="M117.981 30.6451C115.217 28.271 113.826 24.951 113.826 20.6851C113.826 16.4934 115.05 13.1734 117.499 10.7251C119.947 8.27681 123.452 7.05267 127.997 7.05267C130.983 7.05267 133.524 7.62765 135.638 8.75905C137.753 9.89045 139.348 11.4484 140.405 13.4145C141.462 15.3805 142 17.6248 142 20.1472V22.4842C142 22.9108 141.666 23.2447 141.24 23.2447H120.207C120.67 27.0469 123.972 28.9388 130.111 28.9388C131.743 28.9388 133.412 28.7904 135.119 28.5122C136.454 28.2896 137.678 27.9928 138.754 27.6404C139.162 27.5106 139.589 27.8074 139.589 28.2525V32.5184C138.383 33.0192 136.825 33.4273 134.933 33.7426C133.042 34.0579 131.15 34.2248 129.258 34.2248C124.528 34.2248 120.763 33.0192 117.981 30.6451ZM135.675 18.6634C135.601 16.6417 134.878 15.0838 133.524 13.9709C132.151 12.8766 130.278 12.3202 127.904 12.3202C125.567 12.3202 123.712 12.8951 122.358 14.0265C121.004 15.1579 120.299 16.7159 120.225 18.6634H135.675Z" fill="white"/>
<path d="M85.8381 7.83167H91.3653V11.3001C92.5709 9.85334 94.0176 8.77759 95.6869 8.07278C97.3561 7.38652 99.1181 7.03412 100.954 7.03412C104.404 7.03412 106.982 7.9615 108.689 9.8348C110.395 11.7081 111.248 14.1749 111.248 17.2724V33.4087H104.534V17.903C104.534 14.1749 102.791 12.3016 99.3036 12.3016C97.7827 12.3016 96.336 12.6726 94.9821 13.3959C93.6281 14.1193 92.4967 15.2136 91.5693 16.6788V33.4087H84.8551V8.81468C84.8551 8.2768 85.3002 7.83167 85.8381 7.83167Z" fill="white"/>
<path d="M57.0522 44.7969C56.774 44.7412 56.5329 44.667 56.3474 44.5743V43.8138C56.5885 43.9251 56.8296 44.0179 57.0893 44.0735C57.349 44.1291 57.5901 44.1662 57.8498 44.1662C58.1651 44.1662 58.4062 44.1106 58.5731 43.9993C58.74 43.888 58.8142 43.7211 58.8142 43.5171C58.8142 43.3687 58.7771 43.2574 58.703 43.1647C58.6288 43.0719 58.5175 42.9792 58.3691 42.905C58.2207 42.8308 57.9981 42.7381 57.7014 42.6268C57.2377 42.4413 56.9038 42.2373 56.6998 41.9962C56.4958 41.7736 56.3845 41.4769 56.3845 41.143C56.3845 40.8833 56.4587 40.6422 56.6071 40.4382C56.7555 40.2342 56.9595 40.0672 57.2191 39.956C57.4788 39.8447 57.7756 39.789 58.128 39.789C58.4062 39.789 58.6658 39.8076 58.8699 39.8632C59.0924 39.9003 59.2965 39.9745 59.519 40.0672V40.8091C59.111 40.6051 58.7029 40.5124 58.2763 40.5124C57.9796 40.5124 57.7385 40.568 57.5901 40.6793C57.4232 40.7906 57.349 40.939 57.349 41.143C57.349 41.2914 57.3861 41.4027 57.4603 41.4954C57.5345 41.5881 57.6272 41.6623 57.757 41.718C57.8869 41.7736 58.1094 41.8849 58.4247 42.0147C58.7586 42.1446 59.0182 42.2744 59.2037 42.4228C59.3892 42.5712 59.5376 42.701 59.6303 42.8865C59.7231 43.0534 59.7787 43.276 59.7787 43.5356C59.7787 43.9622 59.6303 44.3146 59.315 44.5557C58.9997 44.7969 58.536 44.9081 57.924 44.9081C57.6272 44.8711 57.3304 44.8525 57.0522 44.7969Z" fill="white"/>
<path d="M66.5115 44.5558C66.122 44.3517 65.8067 44.0364 65.5841 43.6469C65.3615 43.2574 65.2502 42.8123 65.2502 42.3115C65.2502 41.8107 65.3615 41.3656 65.5841 40.9761C65.8067 40.5866 66.122 40.2898 66.5115 40.0673C66.901 39.8447 67.3461 39.752 67.8469 39.752C68.3291 39.752 68.7743 39.8632 69.1638 40.0673C69.5533 40.2898 69.8686 40.5866 70.0911 40.9761C70.3137 41.3656 70.425 41.8107 70.425 42.3115C70.425 42.8123 70.3137 43.2574 70.0911 43.6469C69.8686 44.0364 69.5533 44.3332 69.1638 44.5558C68.7743 44.7783 68.3291 44.8711 67.8469 44.8711C67.3461 44.8711 66.9195 44.7783 66.5115 44.5558ZM68.7001 43.851C68.9597 43.7026 69.1638 43.4986 69.3121 43.2389C69.4605 42.9792 69.5347 42.6639 69.5347 42.3115C69.5347 41.9591 69.4605 41.6623 69.3121 41.4027C69.1638 41.143 68.9597 40.939 68.7001 40.7906C68.4404 40.6422 68.1622 40.568 67.8283 40.568C67.513 40.568 67.2163 40.6422 66.9566 40.7906C66.697 40.939 66.4929 41.143 66.3445 41.4027C66.1962 41.6623 66.122 41.9777 66.122 42.3115C66.122 42.6639 66.1962 42.9607 66.3445 43.2389C66.4929 43.4986 66.697 43.7026 66.9566 43.851C67.2163 43.9993 67.4945 44.0735 67.8098 44.0735C68.1622 44.0735 68.4404 43.9993 68.7001 43.851Z" fill="white"/>
<path d="M76.0448 39.8633H76.9351V44.0365H79.2906V44.7784H76.0448V39.8633Z" fill="white"/>
<path d="M85.0218 44.3332C84.6694 43.9623 84.4839 43.48 84.4839 42.868V39.8818H85.3742V42.8865C85.3742 43.276 85.4854 43.5728 85.708 43.7768C85.9306 43.9808 86.2274 44.0735 86.5798 44.0735C86.9507 44.0735 87.2289 43.9808 87.4515 43.7768C87.6741 43.5728 87.7853 43.276 87.7853 42.8865V39.8818H88.6756V42.868C88.6756 43.48 88.5087 43.9808 88.1563 44.3332C87.8039 44.7042 87.2846 44.8711 86.5983 44.8711C85.8935 44.8711 85.3742 44.7042 85.0218 44.3332Z" fill="white"/>
<path d="M97.3375 44.8525L97.2262 45.1307C97.4303 45.1493 97.5787 45.2235 97.6899 45.3533C97.8012 45.4831 97.8569 45.6315 97.8569 45.817C97.8569 46.0396 97.7641 46.2065 97.5787 46.3178C97.3932 46.429 97.1521 46.5032 96.8368 46.5032C96.7069 46.5032 96.5956 46.5032 96.4658 46.4847C96.3545 46.4661 96.2618 46.4476 96.1876 46.429V45.9468C96.2432 45.9654 96.2989 45.9839 96.3731 46.0025C96.4473 46.021 96.5214 46.021 96.5956 46.021C96.8739 46.021 97.0037 45.9283 97.0037 45.7428C97.0037 45.6315 96.948 45.5388 96.8368 45.4646C96.7255 45.3904 96.5585 45.3718 96.2989 45.3718L96.5029 44.871C96.0578 44.834 95.6497 44.7041 95.2973 44.4816C94.9449 44.259 94.6852 43.9622 94.4998 43.6098C94.3143 43.2389 94.2216 42.8123 94.2216 42.3486C94.2216 41.8293 94.3328 41.3841 94.5554 40.9946C94.778 40.6051 95.0747 40.3084 95.4828 40.1043C95.8723 39.9003 96.336 39.789 96.8553 39.789C97.5416 39.789 98.098 39.956 98.5617 40.2713V41.1244C98.1536 40.772 97.6157 40.6051 96.948 40.6051C96.5956 40.6051 96.2803 40.6793 96.0021 40.8277C95.7239 40.9761 95.5199 41.1801 95.3715 41.4398C95.2231 41.6994 95.1489 42.0147 95.1489 42.3671C95.1489 42.7195 95.2231 43.0348 95.3715 43.2945C95.5199 43.5542 95.7425 43.7582 96.0021 43.9066C96.2803 44.055 96.5956 44.1291 96.948 44.1291C97.3004 44.1291 97.5972 44.0921 97.8754 43.9993C98.1536 43.9066 98.3947 43.7768 98.6173 43.5913V44.4445C98.2835 44.6299 97.8569 44.7969 97.3375 44.8525Z" fill="white"/>
<path d="M105.202 44.5557C104.812 44.3517 104.497 44.0364 104.274 43.6469C104.052 43.2574 103.94 42.8123 103.94 42.3115C103.94 41.8107 104.052 41.3656 104.274 40.9761C104.497 40.5866 104.812 40.2898 105.202 40.0673C105.591 39.8447 106.036 39.7519 106.537 39.7519C107.019 39.7519 107.464 39.8632 107.854 40.0673C108.243 40.2898 108.559 40.5866 108.781 40.9761C109.004 41.3656 109.115 41.8107 109.115 42.3115C109.115 42.8123 109.004 43.2574 108.781 43.6469C108.559 44.0364 108.243 44.3332 107.854 44.5557C107.464 44.7783 107.019 44.8711 106.537 44.8711C106.036 44.8711 105.591 44.7783 105.202 44.5557ZM107.372 43.8509C107.631 43.7026 107.835 43.4985 107.984 43.2389C108.132 42.9792 108.206 42.6639 108.206 42.3115C108.206 41.9591 108.132 41.6623 107.984 41.4027C107.835 41.143 107.631 40.939 107.372 40.7906C107.112 40.6422 106.834 40.568 106.5 40.568C106.185 40.568 105.888 40.6422 105.628 40.7906C105.368 40.939 105.164 41.143 105.016 41.4027C104.868 41.6623 104.793 41.9776 104.793 42.3115C104.793 42.6639 104.868 42.9607 105.016 43.2389C105.164 43.4985 105.368 43.7026 105.628 43.8509C105.888 43.9993 106.166 44.0735 106.481 44.0735C106.797 44.0735 107.13 43.9993 107.372 43.8509ZM105.164 38.8431C105.313 38.6391 105.554 38.5464 105.869 38.5464C105.981 38.5464 106.073 38.5649 106.166 38.5835C106.259 38.6205 106.389 38.6576 106.537 38.7133C106.667 38.7689 106.778 38.806 106.889 38.8431C106.982 38.8802 107.093 38.8802 107.186 38.8802C107.483 38.8802 107.705 38.7689 107.891 38.5278V39.2512C107.743 39.4552 107.52 39.5479 107.186 39.5479C107.075 39.5479 106.964 39.5294 106.852 39.5108C106.741 39.4737 106.63 39.4366 106.481 39.381C106.333 39.3254 106.222 39.2883 106.147 39.2512C106.055 39.2141 105.962 39.2141 105.869 39.2141C105.739 39.2141 105.61 39.2512 105.498 39.3068C105.387 39.3624 105.276 39.4552 105.164 39.585V38.8431Z" fill="white"/>
<path d="M114.735 39.8633H118.055V40.6052H115.625V41.9591H117.424V42.7011H115.625V44.055H118.055V44.7969H114.735V39.8633Z" fill="white"/>
<path d="M124.139 44.7969C123.86 44.7412 123.619 44.667 123.434 44.5743V43.8138C123.675 43.9251 123.916 44.0179 124.176 44.0735C124.435 44.1291 124.677 44.1662 124.936 44.1662C125.251 44.1662 125.493 44.1106 125.66 43.9993C125.826 43.888 125.901 43.7211 125.901 43.5171C125.901 43.3687 125.864 43.2574 125.789 43.1647C125.715 43.0719 125.604 42.9792 125.456 42.905C125.307 42.8308 125.085 42.7381 124.788 42.6268C124.324 42.4413 123.99 42.2373 123.786 41.9962C123.582 41.7736 123.471 41.4769 123.471 41.143C123.471 40.8833 123.545 40.6422 123.694 40.4382C123.842 40.2342 124.046 40.0672 124.306 39.956C124.565 39.8447 124.862 39.789 125.214 39.789C125.493 39.789 125.752 39.8076 125.956 39.8632C126.179 39.9003 126.383 39.9745 126.605 40.0672V40.8091C126.197 40.6051 125.789 40.5124 125.363 40.5124C125.066 40.5124 124.825 40.568 124.677 40.6793C124.51 40.7906 124.435 40.939 124.435 41.143C124.435 41.2914 124.472 41.4027 124.547 41.4954C124.621 41.5881 124.714 41.6623 124.843 41.718C124.973 41.7736 125.196 41.8849 125.511 42.0147C125.845 42.1446 126.105 42.2744 126.29 42.4228C126.476 42.5712 126.624 42.701 126.717 42.8865C126.809 43.0534 126.865 43.276 126.865 43.5356C126.865 43.9622 126.717 44.3146 126.401 44.5557C126.086 44.7969 125.622 44.9081 125.01 44.9081C124.714 44.8711 124.435 44.8525 124.139 44.7969Z" fill="white"/>
<path d="M39.3208 24.2648C39.3208 32.6483 32.5138 39.4552 24.1303 39.4552C15.7469 39.4552 8.93991 32.6483 8.93991 24.2648C8.93991 15.974 15.5799 9.24127 23.8336 9.07434V0.13443C10.6463 0.301358 0 11.0218 0 24.2462C0 37.5633 10.7947 48.3766 24.1303 48.3766C37.4475 48.3766 48.2607 37.5819 48.2607 24.2462C48.2607 24.2462 48.2607 24.2462 48.2607 24.2277L39.3208 24.2648Z" fill="#40F5DE"/>
<path d="M48.2051 4.64145C48.1865 3.39877 47.6857 2.26737 46.8696 1.46982C46.0536 0.653733 44.9407 0.152954 43.698 0.152954C43.698 0.152954 43.698 0.152954 43.6795 0.152954L26.6528 0.190046V9.16705L39.2466 9.12996L39.2652 21.4084H48.2422L48.2051 4.64145Z" fill="white"/>
</svg>
